<svg width="926" height="889" viewBox="0 0 926 889" fill="none" xmlns="http://www.w3.org/2000/svg">
<line x1="570.13" y1="841.223" x2="570.13" y2="734.768" stroke="white" stroke-width="7.81667"/>
<path d="M359.08 841.223L359.081 734.768" stroke="white" stroke-width="7.81667"/>
<path d="M355.172 736.133L574.039 736.133" stroke="white" stroke-width="7.81667"/>
<path d="M878.889 837.25L47.7166 837.25" stroke="white" stroke-width="7.81667"/>
<line x1="874.981" y1="-39.082" x2="874.981" y2="837.253" stroke="white" stroke-width="7.81667"/>
<path d="M51.6251 -42.5586L51.625 838.988" stroke="white" stroke-width="7.81667"/>
<mask id="path-7-inside-1_2691_328" fill="white">
<path d="M831.12 841.162C831.12 834.946 832.345 828.791 834.723 823.048C837.102 817.305 840.589 812.087 844.984 807.691C849.38 803.296 854.598 799.809 860.341 797.431C866.083 795.052 872.239 793.828 878.455 793.828L878.455 841.162L831.12 841.162Z"/>
</mask>
<path d="M831.12 841.162C831.12 834.946 832.345 828.791 834.723 823.048C837.102 817.305 840.589 812.087 844.984 807.691C849.38 803.296 854.598 799.809 860.341 797.431C866.083 795.052 872.239 793.828 878.455 793.828L878.455 841.162L831.12 841.162Z" stroke="white" stroke-width="15.6333" mask="url(#path-7-inside-1_2691_328)"/>
<mask id="path-8-inside-2_2691_328" fill="white">
<path d="M48.1509 793.828C54.3669 793.828 60.5221 795.052 66.265 797.431C72.0078 799.809 77.2259 803.296 81.6213 807.691C86.0167 812.087 89.5033 817.305 91.8821 823.048C94.2608 828.791 95.4852 834.946 95.4852 841.162L48.1509 841.162L48.1509 793.828Z"/>
</mask>
<path d="M48.1509 793.828C54.3669 793.828 60.5221 795.052 66.265 797.431C72.0078 799.809 77.2259 803.296 81.6213 807.691C86.0167 812.087 89.5033 817.305 91.8821 823.048C94.2608 828.791 95.4852 834.946 95.4852 841.162L48.1509 841.162L48.1509 793.828Z" stroke="white" stroke-width="15.6333" mask="url(#path-8-inside-2_2691_328)"/>
<path d="M219.684 838.277L219.683 574.983" stroke="white" stroke-width="7.81667"/>
<path d="M708.189 838.277L708.189 574.983" stroke="white" stroke-width="7.81667"/>
<path d="M219.683 579.219L708.659 579.219" stroke="white" stroke-width="7.81667"/>
<path d="M580.337 578.742C568.113 558.211 523.945 515.74 461.855 515.74C399.322 515.74 355.283 556.644 338.67 578.742" stroke="white" stroke-width="7.81667"/>
<mask id="path-13-inside-3_2691_328" fill="white">
<path d="M322.169 -46.0321C322.169 -8.7161 336.992 27.0715 363.379 53.4579C389.765 79.8442 425.553 94.668 462.869 94.668C500.185 94.668 535.972 79.8443 562.359 53.4579C588.745 27.0715 603.569 -8.71605 603.569 -46.032L462.869 -46.032L322.169 -46.0321Z"/>
</mask>
<path d="M322.169 -46.0321C322.169 -8.7161 336.992 27.0715 363.379 53.4579C389.765 79.8442 425.553 94.668 462.869 94.668C500.185 94.668 535.972 79.8443 562.359 53.4579C588.745 27.0715 603.569 -8.71605 603.569 -46.032L462.869 -46.032L322.169 -46.0321Z" stroke="white" stroke-width="15.6333" mask="url(#path-13-inside-3_2691_328)"/>
</svg>
